<svg xmlns:dc="http://purl.org/dc/elements/1.1/" xmlns:cc="http://creativecommons.org/ns#" xmlns:rdf="http://www.w3.org/1999/02/22-rdf-syntax-ns#" xmlns:svg="http://www.w3.org/2000/svg" xmlns="http://www.w3.org/2000/svg" xmlns:sodipodi="http://sodipodi.sourceforge.net/DTD/sodipodi-0.dtd" xmlns:inkscape="http://www.inkscape.org/namespaces/inkscape" style="isolation:isolate;" viewBox="0 0 512 640" version="1.1" x="0px" y="0px"><path style="color:#000000;font-style:normal;font-variant:normal;font-weight:normal;font-stretch:normal;font-size:medium;line-height:normal;font-family:sans-serif;font-variant-ligatures:normal;font-variant-position:normal;font-variant-caps:normal;font-variant-numeric:normal;font-variant-alternates:normal;font-feature-settings:normal;text-indent:0;text-align:start;text-decoration:none;text-decoration-line:none;text-decoration-style:solid;text-decoration-color:#000000;letter-spacing:normal;word-spacing:normal;text-transform:none;writing-mode:lr-tb;direction:ltr;text-orientation:mixed;dominant-baseline:auto;baseline-shift:baseline;text-anchor:start;white-space:normal;shape-padding:0;clip-rule:nonzero;display:inline;overflow:visible;visibility:visible;opacity:1;isolation:auto;mix-blend-mode:normal;color-interpolation:sRGB;color-interpolation-filters:linearRGB;solid-color:#000000;solid-opacity:1;vector-effect:non-scaling-stroke;fill:#000000;fill-opacity:1;fill-rule:nonzero;stroke:none;stroke-width:10;stroke-linecap:round;stroke-linejoin:round;stroke-miterlimit:3;stroke-dasharray:none;stroke-dashoffset:0;stroke-opacity:1;color-rendering:auto;image-rendering:auto;shape-rendering:auto;text-rendering:auto;enable-background:accumulate" d="m 255.60352,115.75391 a 5.0005,5.0005 0 1 0 -0.16016,9.99804 c 49.23879,0.78614 83.09551,3.78618 100.46875,8.50196 1.93521,0.52522 6.39321,4.16117 10.71094,10.0625 4.31772,5.90132 8.79346,13.73439 12.86133,21.73437 8.13572,15.99997 14.64094,32.53252 16.48242,37.0332 1.3647,3.33582 3.75631,6.39228 6.77343,10.07422 3.01713,3.68195 6.65305,7.73826 10.3086,11.78907 6.9421,7.69273 13.81258,15.59497 16.03515,19.19921 0.15611,46.12993 -3.64712,83.0361 -11.17968,110.55664 h -60.81641 c -3.50095,-3.75863 -8.38672,-6.03165 -13.8125,-6.30273 -6.18015,-0.30956 -34.68897,-0.26924 -87.77539,-0.006 a 5.0005,5.0005 0 1 0 0.0488,10 c 53.06824,-0.26329 82.89205,-0.22297 87.22656,-0.006 a 5.0005,5.0005 0 0 0 0.002,0 c 4.05338,0.20252 6.11419,1.382 7.91797,4.08789 a 5.0005,5.0005 0 0 0 4.16016,2.22656 h 66.90039 a 5.0005,5.0005 0 0 0 4.79687,-3.58984 c 8.71944,-29.66483 12.82283,-69.09681 12.5586,-118.54687 a 5.0005,5.0005 0 0 0 -0.60352,-2.35352 c -3.35677,-6.19752 -10.75699,-13.90167 -18.03515,-21.9668 -3.63908,-4.03256 -7.19719,-8.01013 -9.9961,-11.42578 -2.79891,-3.41565 -4.84411,-6.52175 -5.2539,-7.52343 -1.70753,-4.17332 -8.40295,-21.21777 -16.82422,-37.7793 -4.21064,-8.28077 -8.85368,-16.47473 -13.70508,-23.10547 -4.8514,-6.63074 -9.61182,-12.03082 -16.16211,-13.80859 -19.4281,-5.27356 -53.37185,-8.05842 -102.92773,-8.84961 z"/><path style="color:#000000;font-style:normal;font-variant:normal;font-weight:normal;font-stretch:normal;font-size:medium;line-height:normal;font-family:sans-serif;font-variant-ligatures:normal;font-variant-position:normal;font-variant-caps:normal;font-variant-numeric:normal;font-variant-alternates:normal;font-feature-settings:normal;text-indent:0;text-align:start;text-decoration:none;text-decoration-line:none;text-decoration-style:solid;text-decoration-color:#000000;letter-spacing:normal;word-spacing:normal;text-transform:none;writing-mode:lr-tb;direction:ltr;text-orientation:mixed;dominant-baseline:auto;baseline-shift:baseline;text-anchor:start;white-space:normal;shape-padding:0;clip-rule:nonzero;display:inline;overflow:visible;visibility:visible;opacity:1;isolation:auto;mix-blend-mode:normal;color-interpolation:sRGB;color-interpolation-filters:linearRGB;solid-color:#000000;solid-opacity:1;vector-effect:non-scaling-stroke;fill:#000000;fill-opacity:1;fill-rule:nonzero;stroke:none;stroke-width:10;stroke-linecap:round;stroke-linejoin:round;stroke-miterlimit:3;stroke-dasharray:none;stroke-dashoffset:0;stroke-opacity:1;color-rendering:auto;image-rendering:auto;shape-rendering:auto;text-rendering:auto;enable-background:accumulate" d="m 255.56055,138.09766 a 5.0005,5.0005 0 1 0 -0.0723,10 c 47.65687,0.34851 78.84377,2.62654 91.83399,6.10156 2.31368,0.8168 5.95929,3.96797 9.8164,10.39648 3.38344,5.63853 9.24811,19.58401 16.55664,39.27735 -0.632,0.0808 -0.83146,0.15285 -1.59765,0.23047 -4.96796,0.50322 -12.70831,0.9424 -23.05469,1.29101 -20.69276,0.69722 -51.89391,1.04883 -93.51953,1.04883 a 5.0005,5.0005 0 1 0 0,10 c 41.68171,0 72.94018,-0.34991 93.85742,-1.05469 10.45862,-0.35239 18.3119,-0.78961 23.72461,-1.33789 2.70635,-0.27414 4.76885,-0.55663 6.48047,-0.96289 0.85581,-0.20313 1.60519,-0.39352 2.57812,-0.89258 0.48647,-0.24953 1.06067,-0.56578 1.74219,-1.30078 0.68152,-0.73499 1.49617,-2.17972 1.44531,-3.8125 a 5.0005,5.0005 0 0 0 -0.29883,-1.55469 c -8.44803,-23.23176 -14.63993,-38.24699 -19.33789,-46.07617 -4.50864,-7.51441 -9.22085,-12.75461 -15.32422,-14.78906 a 5.0005,5.0005 0 0 0 -0.27539,-0.082 c -15.56848,-4.2154 -46.47298,-6.1308 -94.55468,-6.48242 z"/><path style="color:#000000;font-style:normal;font-variant:normal;font-weight:normal;font-stretch:normal;font-size:medium;line-height:normal;font-family:sans-serif;font-variant-ligatures:normal;font-variant-position:normal;font-variant-caps:normal;font-variant-numeric:normal;font-variant-alternates:normal;font-feature-settings:normal;text-indent:0;text-align:start;text-decoration:none;text-decoration-line:none;text-decoration-style:solid;text-decoration-color:#000000;letter-spacing:normal;word-spacing:normal;text-transform:none;writing-mode:lr-tb;direction:ltr;text-orientation:mixed;dominant-baseline:auto;baseline-shift:baseline;text-anchor:start;white-space:normal;shape-padding:0;clip-rule:nonzero;display:inline;overflow:visible;visibility:visible;opacity:1;isolation:auto;mix-blend-mode:normal;color-interpolation:sRGB;color-interpolation-filters:linearRGB;solid-color:#000000;solid-opacity:1;vector-effect:non-scaling-stroke;fill:#000000;fill-opacity:1;fill-rule:nonzero;stroke:none;stroke-width:10;stroke-linecap:round;stroke-linejoin:round;stroke-miterlimit:3;stroke-dasharray:none;stroke-dashoffset:0;stroke-opacity:1;color-rendering:auto;image-rendering:auto;shape-rendering:auto;text-rendering:auto;enable-background:accumulate" d="m 422.14453,176.33008 c -2.86662,-0.0552 -5.26095,-0.0805 -7.98047,1.06445 -4.29775,1.80981 -8.99777,5.19692 -14.96289,10.25781 a 5.0005,5.0005 0 1 0 6.46875,7.625 c 5.60155,-4.75244 10.01409,-7.67377 12.375,-8.66796 -0.22201,0.0935 1.66314,-0.32452 3.9082,-0.28126 2.24507,0.0433 5.03537,0.31442 7.75586,0.74415 2.7205,0.42973 5.39545,1.02238 7.4043,1.63476 1.50664,0.45929 2.72689,1.22457 2.92578,1.25391 0.58156,0.7063 2.78607,4.10769 4.18164,7.18945 0.60191,1.32916 0.99858,2.47461 1.3125,3.45703 -0.41517,0.23724 -0.69585,0.42658 -1.24218,0.70313 -2.1297,1.07801 -5.16364,2.36172 -8.69727,3.41992 -7.06725,2.1164 -16.0794,3.27492 -24.40625,0.85937 a 5.0005,5.0005 0 1 0 -2.78516,9.60352 c 10.92915,3.17045 21.76435,1.60103 30.0586,-0.88281 4.14712,-1.24193 7.67196,-2.72473 10.3457,-4.07813 1.33687,-0.6767 2.45547,-1.31548 3.38672,-1.92578 0.93124,-0.6103 1.48134,-0.63308 2.72461,-2.43555 1.31685,-1.90868 1.12972,-3.26103 1.0625,-4.30273 -0.0672,-1.0417 -0.26409,-1.92401 -0.51367,-2.83984 -0.49917,-1.83167 -1.25098,-3.7472 -2.13672,-5.70313 -1.77124,-3.91133 -3.65035,-7.59382 -6.31446,-10.31445 -2.29752,-2.34662 -4.35999,-2.7697 -6.98632,-3.57032 -2.62634,-0.80061 -5.65797,-1.45504 -8.76172,-1.94531 -3.10376,-0.49027 -6.25642,-0.80999 -9.12305,-0.86523 z"/><path style="color:#000000;font-style:normal;font-variant:normal;font-weight:normal;font-stretch:normal;font-size:medium;line-height:normal;font-family:sans-serif;font-variant-ligatures:normal;font-variant-position:normal;font-variant-caps:normal;font-variant-numeric:normal;font-variant-alternates:normal;font-feature-settings:normal;text-indent:0;text-align:start;text-decoration:none;text-decoration-line:none;text-decoration-style:solid;text-decoration-color:#000000;letter-spacing:normal;word-spacing:normal;text-transform:none;writing-mode:lr-tb;direction:ltr;text-orientation:mixed;dominant-baseline:auto;baseline-shift:baseline;text-anchor:start;white-space:normal;shape-padding:0;clip-rule:nonzero;display:inline;overflow:visible;visibility:visible;opacity:1;isolation:auto;mix-blend-mode:normal;color-interpolation:sRGB;color-interpolation-filters:linearRGB;solid-color:#000000;solid-opacity:1;vector-effect:non-scaling-stroke;fill:#000000;fill-opacity:1;fill-rule:nonzero;stroke:none;stroke-width:10;stroke-linecap:round;stroke-linejoin:round;stroke-miterlimit:3;stroke-dasharray:none;stroke-dashoffset:0;stroke-opacity:1;color-rendering:auto;image-rendering:auto;shape-rendering:auto;text-rendering:auto;enable-background:accumulate" d="m 397.75391,239.04297 c -4.11724,-0.17935 -10.1273,0.88692 -20.92969,2.875 -10.80239,1.98807 -25.66787,5.00906 -44.64453,9.06836 -4.6291,0.98927 -7.66444,4.41357 -8.09375,9.125 a 5.0005,5.0005 0 0 0 0,0.002 l -0.26758,2.95117 c -0.24946,2.75052 -0.16932,6.13778 0.21289,8.875 0.344,2.46704 2.10618,4.3266 3.67969,5.29102 1.5735,0.96442 3.18488,1.45324 5.02344,1.85156 3.67711,0.79664 8.3385,1.0957 14.38867,1.0957 1.92948,0 13.51358,0.40616 25.62109,0.36524 12.10751,-0.0409 24.53929,-0.22157 32.0918,-2.5293 5.12773,-1.56668 9.31798,-5.26507 11.76953,-10.16797 2.45155,-4.90289 3.44726,-10.88126 3.44726,-17.96875 a 5.0005,5.0005 0 0 0 -0.0508,-0.70898 c -0.55369,-3.86734 -2.70242,-4.5266 -4.25,-5.43164 -1.54757,-0.90504 -3.27239,-1.60905 -5.20117,-2.25195 -3.85756,-1.28581 -8.43832,-2.25211 -12.79687,-2.44141 z m -0.4336,9.99219 c 3.10145,0.1347 7.11418,0.9528 10.06836,1.9375 1.10898,0.36964 1.81764,0.72162 2.48828,1.04882 -0.21442,4.90916 -0.96792,8.85784 -2.21484,11.35157 -1.44111,2.8821 -3.09045,4.26614 -5.74805,5.07812 -4.12449,1.26027 -17.34213,2.05172 -29.20312,2.0918 -11.86099,0.0401 -22.56638,-0.36524 -25.58789,-0.36524 -5.67784,0 -9.90193,-0.35578 -12.27149,-0.86914 -0.58947,-0.1277 -0.62621,-0.18429 -0.95312,-0.30078 -0.11235,-1.71823 -0.22706,-3.87069 -0.1211,-5.03906 l 0.26758,-2.94922 v -0.002 c -0.0329,0.41923 0.64987,-0.34479 0.22461,-0.25391 a 5.0005,5.0005 0 0 0 0.002,0 c 18.92401,-4.04803 33.72639,-7.05446 44.36133,-9.01172 10.63494,-1.95725 17.83074,-2.75411 18.6875,-2.71679 z m 13.36719,3.32617 c 0.003,0.002 0.0127,0.006 0.0156,0.008 0.3406,0.19918 0.21684,0.28459 -0.0156,-0.008 z"/><path style="color:#000000;font-style:normal;font-variant:normal;font-weight:normal;font-stretch:normal;font-size:medium;line-height:normal;font-family:sans-serif;font-variant-ligatures:normal;font-variant-position:normal;font-variant-caps:normal;font-variant-numeric:normal;font-variant-alternates:normal;font-feature-settings:normal;text-indent:0;text-align:start;text-decoration:none;text-decoration-line:none;text-decoration-style:solid;text-decoration-color:#000000;letter-spacing:normal;word-spacing:normal;text-transform:none;writing-mode:lr-tb;direction:ltr;text-orientation:mixed;dominant-baseline:auto;baseline-shift:baseline;text-anchor:start;white-space:normal;shape-padding:0;clip-rule:nonzero;display:inline;overflow:visible;visibility:visible;opacity:1;isolation:auto;mix-blend-mode:normal;color-interpolation:sRGB;color-interpolation-filters:linearRGB;solid-color:#000000;solid-opacity:1;vector-effect:non-scaling-stroke;fill:#000000;fill-opacity:1;fill-rule:nonzero;stroke:none;stroke-width:10;stroke-linecap:round;stroke-linejoin:round;stroke-miterlimit:3;stroke-dasharray:none;stroke-dashoffset:0;stroke-opacity:1;color-rendering:auto;image-rendering:auto;shape-rendering:auto;text-rendering:auto;enable-background:accumulate" d="m 255.52344,251.74805 a 5.0005,5.0005 0 1 0 0,10 h 47.38867 c 1.15786,0 1.16739,0.27012 1.12305,0.20507 -0.0444,-0.065 0.20456,0.04 -0.21875,1.11719 a 5.0005,5.0005 0 0 0 -0.002,0.002 l -4.29883,10.94335 c -0.84702,2.15542 -4.9916,4.98047 -7.30664,4.98047 h -36.68554 a 5.0005,5.0005 0 1 0 0,10 h 36.68554 c 7.35297,0 13.92627,-4.48163 16.61524,-11.32421 l 4.29883,-10.94336 c 1.34468,-3.4218 1.23162,-7.39241 -0.82422,-10.40821 -2.05585,-3.0158 -5.71058,-4.57226 -9.38672,-4.57226 z"/><path style="color:#000000;font-style:normal;font-variant:normal;font-weight:normal;font-stretch:normal;font-size:medium;line-height:normal;font-family:sans-serif;font-variant-ligatures:normal;font-variant-position:normal;font-variant-caps:normal;font-variant-numeric:normal;font-variant-alternates:normal;font-feature-settings:normal;text-indent:0;text-align:start;text-decoration:none;text-decoration-line:none;text-decoration-style:solid;text-decoration-color:#000000;letter-spacing:normal;word-spacing:normal;text-transform:none;writing-mode:lr-tb;direction:ltr;text-orientation:mixed;dominant-baseline:auto;baseline-shift:baseline;text-anchor:start;white-space:normal;shape-padding:0;clip-rule:nonzero;display:inline;overflow:visible;visibility:visible;opacity:1;isolation:auto;mix-blend-mode:normal;color-interpolation:sRGB;color-interpolation-filters:linearRGB;solid-color:#000000;solid-opacity:1;vector-effect:non-scaling-stroke;fill:#000000;fill-opacity:1;fill-rule:nonzero;stroke:none;stroke-width:10;stroke-linecap:round;stroke-linejoin:round;stroke-miterlimit:3;stroke-dasharray:none;stroke-dashoffset:0;stroke-opacity:1;color-rendering:auto;image-rendering:auto;shape-rendering:auto;text-rendering:auto;enable-background:accumulate" d="m 255.52344,306.33398 a 5.0005,5.0005 0 1 0 0,10 h 61.2539 c 1.55561,0 4.39883,0.49546 4.01172,0.3711 1.73375,0.55717 1.57488,0.46903 1.44727,2.26758 -0.10788,1.52036 -1.44636,4.33671 -3.8086,7.33984 h -13.78125 -49.12304 a 5.0005,5.0005 0 1 0 0,10 h 49.12304 16.29883 a 5.0005,5.0005 0 0 0 3.66016,-1.5918 c 4.45661,-4.78712 7.23558,-9.82781 7.60547,-15.04101 0.36989,-5.21321 -3.01907,-10.77731 -8.36133,-12.49414 a 5.0005,5.0005 0 0 0 -0.002,0 c -2.48511,-0.79837 -4.60592,-0.85157 -7.07032,-0.85157 z"/><path style="color:#000000;font-style:normal;font-variant:normal;font-weight:normal;font-stretch:normal;font-size:medium;line-height:normal;font-family:sans-serif;font-variant-ligatures:normal;font-variant-position:normal;font-variant-caps:normal;font-variant-numeric:normal;font-variant-alternates:normal;font-feature-settings:normal;text-indent:0;text-align:start;text-decoration:none;text-decoration-line:none;text-decoration-style:solid;text-decoration-color:#000000;letter-spacing:normal;word-spacing:normal;text-transform:none;writing-mode:lr-tb;direction:ltr;text-orientation:mixed;dominant-baseline:auto;baseline-shift:baseline;text-anchor:start;white-space:normal;shape-padding:0;clip-rule:nonzero;display:inline;overflow:visible;visibility:visible;opacity:1;isolation:auto;mix-blend-mode:normal;color-interpolation:sRGB;color-interpolation-filters:linearRGB;solid-color:#000000;solid-opacity:1;vector-effect:non-scaling-stroke;fill:#000000;fill-opacity:1;fill-rule:nonzero;stroke:none;stroke-width:10;stroke-linecap:round;stroke-linejoin:round;stroke-miterlimit:3;stroke-dasharray:none;stroke-dashoffset:0;stroke-opacity:1;color-rendering:auto;image-rendering:auto;shape-rendering:auto;text-rendering:auto;enable-background:accumulate" d="m 432.60156,284.18164 a 5.0005,5.0005 0 0 0 -4.92383,5.07227 v 17.87109 68.34961 c 0,5.99889 -4.77454,10.77148 -10.77343,10.77148 h -24.07813 c -5.99889,0 -10.77148,-4.77259 -10.77148,-10.77148 v -15.77149 a 5.0005,5.0005 0 1 0 -10,0 v 15.77149 c 0,11.41111 9.36037,20.77148 20.77148,20.77148 h 24.07813 c 11.4111,0 20.77343,-9.36037 20.77343,-20.77148 V 307.125 289.25391 a 5.0005,5.0005 0 0 0 -5.07617,-5.07227 z"/><path style="color:#000000;font-style:normal;font-variant:normal;font-weight:normal;font-stretch:normal;font-size:medium;line-height:normal;font-family:sans-serif;font-variant-ligatures:normal;font-variant-position:normal;font-variant-caps:normal;font-variant-numeric:normal;font-variant-alternates:normal;font-feature-settings:normal;text-indent:0;text-align:start;text-decoration:none;text-decoration-line:none;text-decoration-style:solid;text-decoration-color:#000000;letter-spacing:normal;word-spacing:normal;text-transform:none;writing-mode:lr-tb;direction:ltr;text-orientation:mixed;dominant-baseline:auto;baseline-shift:baseline;text-anchor:start;white-space:normal;shape-padding:0;clip-rule:nonzero;display:inline;overflow:visible;visibility:visible;opacity:1;isolation:auto;mix-blend-mode:normal;color-interpolation:sRGB;color-interpolation-filters:linearRGB;solid-color:#000000;solid-opacity:1;vector-effect:non-scaling-stroke;fill:#000000;fill-opacity:1;fill-rule:nonzero;stroke:none;stroke-width:10;stroke-linecap:round;stroke-linejoin:round;stroke-miterlimit:3;stroke-dasharray:none;stroke-dashoffset:0;stroke-opacity:1;color-rendering:auto;image-rendering:auto;shape-rendering:auto;text-rendering:auto;enable-background:accumulate" d="m 366.68555,316.32227 a 5.0005,5.0005 0 1 0 0,10 h 25.23437 a 5.0005,5.0005 0 1 0 0,-10 z"/><path style="color:#000000;font-style:normal;font-variant:normal;font-weight:normal;font-stretch:normal;font-size:medium;line-height:normal;font-family:sans-serif;font-variant-ligatures:normal;font-variant-position:normal;font-variant-caps:normal;font-variant-numeric:normal;font-variant-alternates:normal;font-feature-settings:normal;text-indent:0;text-align:start;text-decoration:none;text-decoration-line:none;text-decoration-style:solid;text-decoration-color:#000000;letter-spacing:normal;word-spacing:normal;text-transform:none;writing-mode:lr-tb;direction:ltr;text-orientation:mixed;dominant-baseline:auto;baseline-shift:baseline;text-anchor:start;white-space:normal;shape-padding:0;clip-rule:nonzero;display:inline;overflow:visible;visibility:visible;opacity:1;isolation:auto;mix-blend-mode:normal;color-interpolation:sRGB;color-interpolation-filters:linearRGB;solid-color:#000000;solid-opacity:1;vector-effect:non-scaling-stroke;fill:#000000;fill-opacity:1;fill-rule:nonzero;stroke:none;stroke-width:10;stroke-linecap:round;stroke-linejoin:round;stroke-miterlimit:3;stroke-dasharray:none;stroke-dashoffset:0;stroke-opacity:1;color-rendering:auto;image-rendering:auto;shape-rendering:auto;text-rendering:auto;enable-background:accumulate" d="m 256.39648,115.75391 c -49.55588,0.79119 -83.49963,3.57605 -102.92773,8.84961 -6.55029,1.77777 -11.31071,7.17785 -16.16211,13.80859 -4.8514,6.63074 -9.49444,14.8247 -13.70508,23.10547 -8.42127,16.56153 -15.11669,33.60598 -16.82422,37.7793 -0.40979,1.00168 -2.45499,4.10778 -5.2539,7.52343 -2.798912,3.41565 -6.357016,7.39322 -9.996096,11.42578 -7.278162,8.06513 -14.678386,15.76928 -18.035156,21.9668 a 5.0005,5.0005 0 0 0 -0.603516,2.35352 c -0.264235,49.45006 3.839156,88.88204 12.558594,118.54687 a 5.0005,5.0005 0 0 0 4.796875,3.58984 h 66.900389 a 5.0005,5.0005 0 0 0 4.16016,-2.22656 c 1.80378,-2.70589 3.86459,-3.88537 7.91797,-4.08789 a 5.0005,5.0005 0 0 0 0.002,0 c 4.33451,-0.21711 34.15832,-0.25743 87.22656,0.006 a 5.0005,5.0005 0 1 0 0.0488,-10 c -53.08642,-0.26338 -81.59524,-0.3037 -87.77539,0.006 -5.42578,0.27108 -10.31155,2.5441 -13.8125,6.30273 H 94.095703 C 86.563139,327.18258 82.759906,290.27641 82.916016,244.14648 85.138591,240.54224 92.00907,232.64 98.951172,224.94727 c 3.655548,-4.05081 7.291468,-8.10712 10.308598,-11.78907 3.01712,-3.68194 5.40873,-6.7384 6.77343,-10.07422 1.84148,-4.50068 8.3467,-21.03323 16.48242,-37.0332 4.06787,-7.99998 8.54361,-15.83305 12.86133,-21.73437 4.31773,-5.90133 8.77573,-9.53728 10.71094,-10.0625 17.37324,-4.71578 51.22996,-7.71582 100.46875,-8.50196 a 5.0005,5.0005 0 1 0 -0.16016,-9.99804 z"/><path style="color:#000000;font-style:normal;font-variant:normal;font-weight:normal;font-stretch:normal;font-size:medium;line-height:normal;font-family:sans-serif;font-variant-ligatures:normal;font-variant-position:normal;font-variant-caps:normal;font-variant-numeric:normal;font-variant-alternates:normal;font-feature-settings:normal;text-indent:0;text-align:start;text-decoration:none;text-decoration-line:none;text-decoration-style:solid;text-decoration-color:#000000;letter-spacing:normal;word-spacing:normal;text-transform:none;writing-mode:lr-tb;direction:ltr;text-orientation:mixed;dominant-baseline:auto;baseline-shift:baseline;text-anchor:start;white-space:normal;shape-padding:0;clip-rule:nonzero;display:inline;overflow:visible;visibility:visible;opacity:1;isolation:auto;mix-blend-mode:normal;color-interpolation:sRGB;color-interpolation-filters:linearRGB;solid-color:#000000;solid-opacity:1;vector-effect:non-scaling-stroke;fill:#000000;fill-opacity:1;fill-rule:nonzero;stroke:none;stroke-width:10;stroke-linecap:round;stroke-linejoin:round;stroke-miterlimit:3;stroke-dasharray:none;stroke-dashoffset:0;stroke-opacity:1;color-rendering:auto;image-rendering:auto;shape-rendering:auto;text-rendering:auto;enable-background:accumulate" d="m 256.43945,138.09766 c -48.0817,0.35162 -78.9862,2.26702 -94.55468,6.48242 a 5.0005,5.0005 0 0 0 -0.27539,0.082 c -6.10337,2.03445 -10.81558,7.27465 -15.32422,14.78906 -4.69796,7.82918 -10.88986,22.84441 -19.33789,46.07617 a 5.0005,5.0005 0 0 0 -0.29883,1.55469 c -0.0509,1.63278 0.76379,3.07751 1.44531,3.8125 0.68152,0.735 1.25572,1.05125 1.74219,1.30078 0.97293,0.49906 1.72231,0.68945 2.57812,0.89258 1.71162,0.40626 3.77412,0.68875 6.48047,0.96289 5.41271,0.54828 13.26599,0.9855 23.72461,1.33789 20.91724,0.70478 52.17571,1.05469 93.85742,1.05469 a 5.0005,5.0005 0 1 0 0,-10 c -41.62562,0 -72.82677,-0.35161 -93.51953,-1.04883 -10.34638,-0.34861 -18.08673,-0.78779 -23.05469,-1.29101 -0.76619,-0.0776 -0.96565,-0.14965 -1.59765,-0.23047 7.30853,-19.69334 13.1732,-33.63882 16.55664,-39.27735 3.85711,-6.42851 7.50272,-9.57968 9.8164,-10.39648 12.99022,-3.47502 44.17712,-5.75305 91.83399,-6.10156 a 5.0005,5.0005 0 1 0 -0.0723,-10 z"/><path style="color:#000000;font-style:normal;font-variant:normal;font-weight:normal;font-stretch:normal;font-size:medium;line-height:normal;font-family:sans-serif;font-variant-ligatures:normal;font-variant-position:normal;font-variant-caps:normal;font-variant-numeric:normal;font-variant-alternates:normal;font-feature-settings:normal;text-indent:0;text-align:start;text-decoration:none;text-decoration-line:none;text-decoration-style:solid;text-decoration-color:#000000;letter-spacing:normal;word-spacing:normal;text-transform:none;writing-mode:lr-tb;direction:ltr;text-orientation:mixed;dominant-baseline:auto;baseline-shift:baseline;text-anchor:start;white-space:normal;shape-padding:0;clip-rule:nonzero;display:inline;overflow:visible;visibility:visible;opacity:1;isolation:auto;mix-blend-mode:normal;color-interpolation:sRGB;color-interpolation-filters:linearRGB;solid-color:#000000;solid-opacity:1;vector-effect:non-scaling-stroke;fill:#000000;fill-opacity:1;fill-rule:nonzero;stroke:none;stroke-width:10;stroke-linecap:round;stroke-linejoin:round;stroke-miterlimit:3;stroke-dasharray:none;stroke-dashoffset:0;stroke-opacity:1;color-rendering:auto;image-rendering:auto;shape-rendering:auto;text-rendering:auto;enable-background:accumulate" d="m 89.855469,176.33008 c -2.866624,0.0552 -6.019291,0.37496 -9.123047,0.86523 -3.103756,0.49027 -6.135383,1.1447 -8.761719,1.94531 -2.626335,0.80062 -4.688802,1.2237 -6.986328,3.57032 -2.664104,2.72063 -4.543215,6.40312 -6.314453,10.31445 -0.885737,1.95593 -1.637551,3.87146 -2.136719,5.70313 -0.249584,0.91583 -0.446451,1.79814 -0.513672,2.83984 -0.06722,1.0417 -0.254354,2.39405 1.0625,4.30273 1.243274,1.80247 1.793364,1.82525 2.72461,2.43555 0.931245,0.6103 2.049849,1.24908 3.386718,1.92578 2.673739,1.3534 6.198579,2.8362 10.345703,4.07813 8.294249,2.48384 19.129449,4.05326 30.058598,0.88281 a 5.0005,5.0005 0 1 0 -2.78516,-9.60352 c -8.326855,2.41555 -17.338998,1.25703 -24.40625,-0.85937 -3.533626,-1.0582 -6.567567,-2.34191 -8.697266,-3.41992 -0.546332,-0.27655 -0.827016,-0.46589 -1.242187,-0.70313 0.313925,-0.98242 0.710594,-2.12787 1.3125,-3.45703 1.395568,-3.08176 3.600085,-6.48315 4.181641,-7.18945 0.198893,-0.0293 1.419142,-0.79462 2.925781,-1.25391 2.008852,-0.61238 4.683803,-1.20503 7.404297,-1.63476 2.720493,-0.42973 5.510795,-0.70088 7.755859,-0.74415 2.245064,-0.0433 4.130217,0.37473 3.908203,0.28126 2.36091,0.99419 6.773452,3.91552 12.375002,8.66796 a 5.0005,5.0005 0 1 0 6.46875,-7.625 c -5.96512,-5.06089 -10.66514,-8.448 -14.962892,-10.25781 -2.719515,-1.14497 -5.113845,-1.11969 -7.980469,-1.06445 z"/><path style="color:#000000;font-style:normal;font-variant:normal;font-weight:normal;font-stretch:normal;font-size:medium;line-height:normal;font-family:sans-serif;font-variant-ligatures:normal;font-variant-position:normal;font-variant-caps:normal;font-variant-numeric:normal;font-variant-alternates:normal;font-feature-settings:normal;text-indent:0;text-align:start;text-decoration:none;text-decoration-line:none;text-decoration-style:solid;text-decoration-color:#000000;letter-spacing:normal;word-spacing:normal;text-transform:none;writing-mode:lr-tb;direction:ltr;text-orientation:mixed;dominant-baseline:auto;baseline-shift:baseline;text-anchor:start;white-space:normal;shape-padding:0;clip-rule:nonzero;display:inline;overflow:visible;visibility:visible;opacity:1;isolation:auto;mix-blend-mode:normal;color-interpolation:sRGB;color-interpolation-filters:linearRGB;solid-color:#000000;solid-opacity:1;vector-effect:non-scaling-stroke;fill:#000000;fill-opacity:1;fill-rule:nonzero;stroke:none;stroke-width:10;stroke-linecap:round;stroke-linejoin:round;stroke-miterlimit:3;stroke-dasharray:none;stroke-dashoffset:0;stroke-opacity:1;color-rendering:auto;image-rendering:auto;shape-rendering:auto;text-rendering:auto;enable-background:accumulate" d="m 114.24609,239.04297 c -4.35855,0.1893 -8.93931,1.1556 -12.79687,2.44141 -1.928783,0.6429 -3.653597,1.34691 -5.201173,2.25195 -1.547576,0.90504 -3.696306,1.5643 -4.25,5.43164 a 5.0005,5.0005 0 0 0 -0.05078,0.70898 c 0,7.08749 0.995713,13.06586 3.447265,17.96875 2.451553,4.9029 6.641799,8.60129 11.769529,10.16797 7.55251,2.30773 19.98429,2.48838 32.0918,2.5293 12.10751,0.0409 23.69161,-0.36524 25.62109,-0.36524 6.05017,0 10.71156,-0.29906 14.38867,-1.0957 1.83856,-0.39832 3.44994,-0.88714 5.02344,-1.85156 1.57351,-0.96442 3.33569,-2.82398 3.67969,-5.29102 0.38221,-2.73722 0.46235,-6.12448 0.21289,-8.875 l -0.26758,-2.95117 a 5.0005,5.0005 0 0 0 0,-0.002 c -0.42931,-4.71143 -3.46465,-8.13573 -8.09375,-9.125 -18.97666,-4.0593 -33.84214,-7.08029 -44.64453,-9.06836 -10.80239,-1.98808 -16.81245,-3.05435 -20.92969,-2.875 z m 0.4336,9.99219 c 0.85676,-0.0373 8.05256,0.75954 18.6875,2.71679 10.63494,1.95726 25.43732,4.96369 44.36133,9.01172 a 5.0005,5.0005 0 0 0 0.002,0 c -0.4271,-0.0913 0.26392,0.68729 0.22461,0.25586 l 0.26758,2.94922 c 0.10596,1.16837 -0.009,3.32083 -0.1211,5.03906 -0.32691,0.11649 -0.36365,0.17308 -0.95312,0.30078 -2.36956,0.51336 -6.59365,0.86914 -12.27149,0.86914 -3.02151,0 -13.7269,0.40532 -25.58789,0.36524 -11.86099,-0.0401 -25.07863,-0.83153 -29.20312,-2.0918 -2.6576,-0.81198 -4.30694,-2.19602 -5.74805,-5.07812 -1.24692,-2.49373 -2.00042,-6.44241 -2.21484,-11.35157 0.67064,-0.3272 1.3793,-0.67918 2.48828,-1.04882 2.95418,-0.9847 6.96691,-1.8028 10.06836,-1.9375 z m -13.36719,3.32617 c -0.23246,0.2924 -0.35622,0.20699 -0.0156,0.008 0.003,-0.002 0.0127,-0.006 0.0156,-0.008 z"/><path style="color:#000000;font-style:normal;font-variant:normal;font-weight:normal;font-stretch:normal;font-size:medium;line-height:normal;font-family:sans-serif;font-variant-ligatures:normal;font-variant-position:normal;font-variant-caps:normal;font-variant-numeric:normal;font-variant-alternates:normal;font-feature-settings:normal;text-indent:0;text-align:start;text-decoration:none;text-decoration-line:none;text-decoration-style:solid;text-decoration-color:#000000;letter-spacing:normal;word-spacing:normal;text-transform:none;writing-mode:lr-tb;direction:ltr;text-orientation:mixed;dominant-baseline:auto;baseline-shift:baseline;text-anchor:start;white-space:normal;shape-padding:0;clip-rule:nonzero;display:inline;overflow:visible;visibility:visible;opacity:1;isolation:auto;mix-blend-mode:normal;color-interpolation:sRGB;color-interpolation-filters:linearRGB;solid-color:#000000;solid-opacity:1;vector-effect:non-scaling-stroke;fill:#000000;fill-opacity:1;fill-rule:nonzero;stroke:none;stroke-width:10;stroke-linecap:round;stroke-linejoin:round;stroke-miterlimit:3;stroke-dasharray:none;stroke-dashoffset:0;stroke-opacity:1;color-rendering:auto;image-rendering:auto;shape-rendering:auto;text-rendering:auto;enable-background:accumulate" d="m 209.08789,251.74805 c -3.67614,0 -7.33087,1.55646 -9.38672,4.57226 -2.05584,3.0158 -2.1689,6.98641 -0.82422,10.40821 l 4.29883,10.94336 c 2.68897,6.84258 9.26227,11.32421 16.61524,11.32421 h 36.68554 a 5.0005,5.0005 0 1 0 0,-10 h -36.68554 c -2.31504,0 -6.45962,-2.82505 -7.30664,-4.98047 l -4.29883,-10.94335 a 5.0005,5.0005 0 0 0 -0.002,-0.002 c -0.42331,-1.0772 -0.1744,-1.18223 -0.21875,-1.11719 -0.0443,0.065 -0.0348,-0.20507 1.12305,-0.20507 h 47.38867 a 5.0005,5.0005 0 1 0 0,-10 z"/><path style="color:#000000;font-style:normal;font-variant:normal;font-weight:normal;font-stretch:normal;font-size:medium;line-height:normal;font-family:sans-serif;font-variant-ligatures:normal;font-variant-position:normal;font-variant-caps:normal;font-variant-numeric:normal;font-variant-alternates:normal;font-feature-settings:normal;text-indent:0;text-align:start;text-decoration:none;text-decoration-line:none;text-decoration-style:solid;text-decoration-color:#000000;letter-spacing:normal;word-spacing:normal;text-transform:none;writing-mode:lr-tb;direction:ltr;text-orientation:mixed;dominant-baseline:auto;baseline-shift:baseline;text-anchor:start;white-space:normal;shape-padding:0;clip-rule:nonzero;display:inline;overflow:visible;visibility:visible;opacity:1;isolation:auto;mix-blend-mode:normal;color-interpolation:sRGB;color-interpolation-filters:linearRGB;solid-color:#000000;solid-opacity:1;vector-effect:non-scaling-stroke;fill:#000000;fill-opacity:1;fill-rule:nonzero;stroke:none;stroke-width:10;stroke-linecap:round;stroke-linejoin:round;stroke-miterlimit:3;stroke-dasharray:none;stroke-dashoffset:0;stroke-opacity:1;color-rendering:auto;image-rendering:auto;shape-rendering:auto;text-rendering:auto;enable-background:accumulate" d="m 195.22266,306.33398 c -2.4644,0 -4.58521,0.0532 -7.07032,0.85157 a 5.0005,5.0005 0 0 0 -0.002,0 c -5.34226,1.71683 -8.73122,7.28093 -8.36133,12.49414 0.36989,5.2132 3.14886,10.25389 7.60547,15.04101 a 5.0005,5.0005 0 0 0 3.66016,1.5918 h 16.29883 49.12304 a 5.0005,5.0005 0 1 0 0,-10 h -49.12304 -13.78125 c -2.36224,-3.00313 -3.70072,-5.81948 -3.8086,-7.33984 -0.12761,-1.79855 -0.28648,-1.71041 1.44727,-2.26758 -0.38711,0.12436 2.45611,-0.3711 4.01172,-0.3711 h 61.2539 a 5.0005,5.0005 0 1 0 0,-10 z"/><path style="color:#000000;font-style:normal;font-variant:normal;font-weight:normal;font-stretch:normal;font-size:medium;line-height:normal;font-family:sans-serif;font-variant-ligatures:normal;font-variant-position:normal;font-variant-caps:normal;font-variant-numeric:normal;font-variant-alternates:normal;font-feature-settings:normal;text-indent:0;text-align:start;text-decoration:none;text-decoration-line:none;text-decoration-style:solid;text-decoration-color:#000000;letter-spacing:normal;word-spacing:normal;text-transform:none;writing-mode:lr-tb;direction:ltr;text-orientation:mixed;dominant-baseline:auto;baseline-shift:baseline;text-anchor:start;white-space:normal;shape-padding:0;clip-rule:nonzero;display:inline;overflow:visible;visibility:visible;opacity:1;isolation:auto;mix-blend-mode:normal;color-interpolation:sRGB;color-interpolation-filters:linearRGB;solid-color:#000000;solid-opacity:1;vector-effect:non-scaling-stroke;fill:#000000;fill-opacity:1;fill-rule:nonzero;stroke:none;stroke-width:10;stroke-linecap:round;stroke-linejoin:round;stroke-miterlimit:3;stroke-dasharray:none;stroke-dashoffset:0;stroke-opacity:1;color-rendering:auto;image-rendering:auto;shape-rendering:auto;text-rendering:auto;enable-background:accumulate" d="m 79.248047,284.18164 a 5.0005,5.0005 0 0 0 -4.925781,5.07227 v 86.2207 c 0,11.41111 9.36233,20.77148 20.773437,20.77148 h 24.078127 c 11.41111,0 20.77148,-9.36037 20.77148,-20.77148 v -15.77149 a 5.0005,5.0005 0 1 0 -10,0 v 15.77149 c 0,5.99889 -4.77259,10.77148 -10.77148,10.77148 H 95.095703 c -5.998892,0 -10.773437,-4.77259 -10.773437,-10.77148 v -86.2207 a 5.0005,5.0005 0 0 0 -5.074219,-5.07227 z"/><path style="color:#000000;font-style:normal;font-variant:normal;font-weight:normal;font-stretch:normal;font-size:medium;line-height:normal;font-family:sans-serif;font-variant-ligatures:normal;font-variant-position:normal;font-variant-caps:normal;font-variant-numeric:normal;font-variant-alternates:normal;font-feature-settings:normal;text-indent:0;text-align:start;text-decoration:none;text-decoration-line:none;text-decoration-style:solid;text-decoration-color:#000000;letter-spacing:normal;word-spacing:normal;text-transform:none;writing-mode:lr-tb;direction:ltr;text-orientation:mixed;dominant-baseline:auto;baseline-shift:baseline;text-anchor:start;white-space:normal;shape-padding:0;clip-rule:nonzero;display:inline;overflow:visible;visibility:visible;opacity:1;isolation:auto;mix-blend-mode:normal;color-interpolation:sRGB;color-interpolation-filters:linearRGB;solid-color:#000000;solid-opacity:1;vector-effect:non-scaling-stroke;fill:#000000;fill-opacity:1;fill-rule:nonzero;stroke:none;stroke-width:10;stroke-linecap:round;stroke-linejoin:round;stroke-miterlimit:3;stroke-dasharray:none;stroke-dashoffset:0;stroke-opacity:1;color-rendering:auto;image-rendering:auto;shape-rendering:auto;text-rendering:auto;enable-background:accumulate" d="m 120.08008,316.32227 a 5.0005,5.0005 0 1 0 0,10 h 25.23437 a 5.0005,5.0005 0 1 0 0,-10 z"/><text x="0" y="527" fill="#000000" font-size="5px" font-weight="bold" font-family="'Helvetica Neue', Helvetica, Arial-Unicode, Arial, Sans-serif">Created by Andri Graphic</text><text x="0" y="532" fill="#000000" font-size="5px" font-weight="bold" font-family="'Helvetica Neue', Helvetica, Arial-Unicode, Arial, Sans-serif">from the Noun Project</text></svg>